<svg width="92" height="36" viewBox="0 0 92 36" fill="none" xmlns="http://www.w3.org/2000/svg">
<path d="M17.3073 10.1077C17.8444 9.95295 18.7552 9.99237 19.3488 9.9703C19.7615 10.7316 19.2819 13.018 20.107 13.2033C20.4397 13.2523 21.0801 13.0522 21.1534 12.6235C21.1107 11.9574 20.964 10.9425 20.9324 10.3057C20.831 8.32421 20.4944 6.57142 20.4845 4.38843C20.4902 3.53033 20.5905 2.97779 19.8174 2.96692C18.8355 2.93409 18.5191 4.33671 18.0422 5.25791C17.0899 7.08638 16.1515 8.91631 15.2724 10.851C15.0863 11.2819 14.7787 11.7986 14.7912 12.0815C14.8059 12.4772 15.5658 12.8808 16.0472 12.4528C16.4538 11.9324 17.0743 10.7166 17.3073 10.1077ZM19.0998 6.31223C19.2625 6.63903 19.3294 8.01154 19.257 8.56701C19.0584 8.71507 18.3058 8.77674 17.9959 8.64562C18.1496 7.98608 18.691 6.71973 18.9745 6.29906C19.0163 6.30345 19.058 6.30784 19.0998 6.31223ZM24.4673 3.2304C23.4898 3.42328 23.4248 4.97901 23.2059 6.1244C22.891 7.78057 22.5937 9.00218 22.2188 10.6943C22.0789 11.3553 21.4571 13.1199 21.9026 13.4342C22.2801 13.7273 22.9212 13.3864 23.1351 12.9584C23.2773 12.6778 23.5321 11.5925 23.6163 11.1931C24.0124 9.16537 24.424 7.39268 24.801 5.27851C24.957 4.46435 25.4727 3.04045 24.4673 3.2304ZM27.3634 3.5348C26.3859 3.72768 26.321 5.28341 26.102 6.4288C25.7872 8.08496 25.4899 9.30658 25.1149 10.9987C24.9751 11.6597 24.3532 13.4243 24.7988 13.7386C25.1762 14.0317 25.8174 13.6908 26.0313 13.2628C26.1734 12.9822 26.4282 11.8969 26.5125 11.4975C26.9086 9.46977 27.3201 7.69707 27.6972 5.58291C27.8531 4.76875 28.3688 3.34485 27.3634 3.5348ZM33.9472 7.64752C33.8365 7.49512 33.6225 7.38816 33.4122 7.38013C32.6574 7.32896 32.6326 7.83312 32.399 8.85028C32.1551 9.96489 31.9158 11.8402 31.6984 12.9716C31.6259 13.2596 31.5365 13.574 31.5746 13.7469C31.6267 13.9213 31.9015 14.1191 32.1089 14.155C32.6351 14.2385 32.9025 14.2384 33.0915 13.7797C33.3201 13.2125 33.4715 11.6377 33.5821 10.9877C33.6069 10.751 34.621 10.21 35.2094 10.1029C35.4549 10.0443 36.0697 9.95402 36.3694 9.91514C36.6552 9.87479 37.204 9.6087 37.179 9.04298C37.1511 8.77259 36.836 8.55646 36.5465 8.49788C36.0526 8.37559 35.4584 8.53836 35.0678 8.63808C34.7051 8.74073 34.1849 9.13652 33.8485 8.98855C33.9246 8.53201 34.0506 8.13701 33.9472 7.64752ZM38.9314 12.8309C39.2773 12.7546 39.8657 12.6476 40.3105 12.5676C40.97 12.4539 41.3107 12.2927 41.9607 12.1357C42.3498 12.0499 42.6641 11.6044 42.6757 11.2255C42.7021 10.9749 42.5657 10.3975 42.4858 10.2201C42.0349 8.75096 40.9356 8.22718 39.5214 8.55716C38.9469 8.66571 38.2632 9.14286 37.8632 9.73429C37.3533 10.3001 37.108 11.1612 37.2466 12.3864C37.5026 13.5676 37.8221 14.0094 38.9016 14.5874C39.5722 15.038 40.9557 15.0004 41.72 14.5599C41.9771 14.3898 42.0921 13.9655 41.8195 13.6131C41.324 13.2372 40.8552 13.9481 39.9428 13.6551C39.3433 13.4654 38.9945 13.3021 38.9314 12.8309ZM39.208 10.1994C40.1598 9.58151 40.9893 9.725 41.2401 10.8212C41.1456 11.0506 40.717 11.2449 40.3894 11.2808C39.8919 11.3271 39.0133 11.5163 38.767 11.4482C38.682 11.1858 38.8152 10.4537 39.208 10.1994ZM46.2013 8.9214C45.4406 8.92592 44.7196 9.08944 44.154 9.64938C43.9327 9.87952 43.7987 10.4848 43.7885 10.8498C43.7688 11.4389 44.3053 11.9599 44.7421 12.3577C45.1027 12.6771 45.9982 13.264 45.8518 13.8539C44.8964 14.9078 44.4675 13.7647 43.682 14.0059C43.5369 14.047 43.3537 14.1826 43.3127 14.305C43.1128 15.0019 43.2887 15.2034 44.4444 15.5923C44.9339 15.7564 45.7114 15.7255 46.129 15.5019C46.7101 15.197 47.2171 14.659 47.3254 13.8962C47.4616 12.8688 46.6459 12.1918 46.1218 11.6862C46.0068 11.5756 45.3208 11.1375 45.3896 10.7506C45.4643 10.308 45.923 10.2295 46.6669 10.5188C46.9321 10.6734 47.5214 11.228 47.8233 11.0345C47.9713 10.9656 48.3069 10.7193 48.3032 10.3529C48.2987 9.85978 47.7923 9.45462 47.2587 9.17331C46.992 9.03266 46.2724 8.91479 46.2013 8.9214ZM50.6384 14.0614C50.9843 13.9851 51.5727 13.878 52.0175 13.7981C52.677 13.6844 53.0177 13.5231 53.6677 13.3662C54.0568 13.2804 54.3711 12.8348 54.3827 12.456C54.4091 12.2053 54.2727 11.6279 54.1928 11.4506C53.7419 9.98141 52.6426 9.45764 51.2284 9.78762C50.6539 9.89616 49.9702 10.3733 49.5702 10.9647C49.0603 11.5305 48.815 12.3916 48.9536 13.6168C49.2096 14.798 49.5291 15.2399 50.6086 15.8179C51.2792 16.2684 52.6627 16.2308 53.427 15.7903C53.6841 15.6203 53.7991 15.196 53.5265 14.8435C53.031 14.4677 52.5622 15.1786 51.6498 14.8856C51.0503 14.6959 50.7015 14.5325 50.6384 14.0614ZM50.915 11.4299C51.8668 10.812 52.6963 10.9555 52.9471 12.0517C52.8526 12.2811 52.424 12.4753 52.0964 12.5113C51.5989 12.5575 50.7203 12.7467 50.474 12.6786C50.389 12.4163 50.5222 11.6842 50.915 11.4299ZM56.374 11.6235C56.8848 11.7195 57.5354 11.1544 58.5972 11.097C58.9131 11.1725 59.3104 11.9462 58.9126 12.3831C58.6605 12.6381 57.4719 12.4287 56.7677 12.5659C56.3647 12.6502 55.8466 12.8914 55.6312 13.0658C55.2927 13.3399 54.8795 13.7892 54.9551 14.5432C54.9632 14.8678 55.2109 15.1895 55.4381 15.4386C55.982 16.1574 56.5822 16.4739 57.37 16.8804C57.5964 17.0028 58.1571 17.1603 58.3981 17.1434C58.7367 17.1367 59.1514 16.6735 59.2781 16.4053C59.5799 15.6769 59.7996 14.9257 60.0377 14.1343C60.2237 13.4359 60.5379 12.4553 60.4784 11.5482C60.4431 10.8124 60.04 10.0944 59.5577 9.86068C58.7011 9.57356 57.9881 9.79424 57.0641 10.1476C56.5981 10.2957 56.0412 10.5046 56.0523 11.0689C56.0677 11.3239 56.1197 11.4983 56.374 11.6235ZM57.6853 13.7462C57.9513 13.7601 58.4877 13.7461 58.6527 13.9183C58.6014 14.4056 58.4572 15.3759 58.0139 15.4419C57.3558 15.2742 56.3562 14.8735 56.4272 14.0645C56.6653 13.808 57.1533 13.7185 57.6853 13.7462ZM63.3167 10.7344C63.206 10.582 62.992 10.475 62.7817 10.467C62.0269 10.4158 62.0021 10.92 61.7685 11.9371C61.5246 13.0518 61.2853 14.927 61.0678 16.0585C60.9953 16.3465 60.906 16.6609 60.9441 16.8338C60.9962 17.0082 61.271 17.206 61.4784 17.2419C62.0045 17.3253 62.272 17.3253 62.461 16.8665C62.6895 16.2993 62.841 14.7245 62.9515 14.0745C62.9764 13.8378 63.9905 13.2968 64.5789 13.1898C64.8244 13.1311 65.4392 13.0409 65.7389 13.002C66.0247 12.9616 66.5735 12.6956 66.5485 12.1298C66.5206 11.8594 66.2055 11.6433 65.916 11.5847C65.4221 11.4624 64.8278 11.6252 64.4373 11.7249C64.0745 11.8276 63.5543 12.2234 63.218 12.0754C63.2941 11.6189 63.4201 11.2239 63.3167 10.7344ZM71.3675 16.9017C71.1306 16.0744 70.4697 16.4695 69.6644 16.4975C68.5762 16.5379 67.9693 15.8829 67.7992 15.0908C67.6415 14.3141 68.6087 13.4162 69.6243 13.3963C70.0046 13.394 70.3659 13.5728 70.8481 13.539C71.2299 13.5228 71.6263 13.0999 71.558 12.5437C71.4839 12.0433 70.0667 11.8661 69.6153 11.875C68.4047 11.8745 67.3584 12.4543 66.7305 13.4722C66.4324 14.0321 66.187 14.8932 66.3146 15.5542C66.6673 16.8863 67.5798 17.7142 69.0109 17.8928C70.3029 18.0567 71.5742 17.6132 71.3675 16.9017ZM74.8132 12.4917C74.6725 12.491 74.9743 11.4951 75.1054 10.9176C75.1896 10.5182 75.52 9.9195 75.3022 9.44615C75.1864 9.20875 74.8237 9.04392 74.4961 9.07988C73.8549 9.15326 73.7357 10.4217 73.557 11.318C73.3828 12.1724 73.207 12.7734 73.0027 13.7795C72.682 15.2239 72.4629 15.8344 72.1568 17.1395C71.976 17.9229 71.9094 18.6901 72.5132 18.8381C73.3831 18.9999 73.4548 18.3176 73.5991 17.6149C73.8678 16.531 73.9088 15.8737 74.2354 14.9086C74.3973 14.5737 74.6274 14.26 74.9014 14.0635C75.1476 13.8642 75.4773 13.6736 75.9368 13.7219C76.1515 13.9556 75.929 15.537 75.9078 15.8727C75.7373 17.361 75.4678 18.5855 75.5946 18.8522C75.7215 19.119 76.3209 19.3087 76.6609 19.0206C77.0456 18.7091 77.1018 17.7719 77.1801 16.8932C77.2679 16.0578 77.4363 14.9916 77.4662 14.305C77.5115 13.3384 77.3369 12.3206 76.7375 12.1309C75.9336 11.8775 75.5402 12.54 74.8132 12.4917ZM3.93334 18.556C3.1727 18.5605 2.45166 18.724 1.88603 19.284C1.66476 19.5141 1.53076 20.1194 1.52056 20.4843C1.50086 21.0735 2.03735 21.5944 2.47416 21.9923C2.83474 22.3117 3.73031 22.8985 3.58384 23.4885C2.62844 24.5424 2.19958 23.3993 1.41406 23.6405C1.26898 23.6816 1.0858 23.8171 1.04478 23.9395C0.84484 24.6364 1.02074 24.8379 2.17642 25.2269C2.66595 25.3909 3.44344 25.36 3.8611 25.1365C4.44215 24.8315 4.94916 24.2936 5.0575 23.5307C5.19363 22.5033 4.37793 21.8264 3.8539 21.3208C3.73884 21.2102 3.05287 20.7721 3.12169 20.3852C3.19637 19.9425 3.65509 19.8641 4.39892 20.1534C4.66421 20.308 5.25347 20.8626 5.55535 20.6691C5.70336 20.6002 6.03894 20.3539 6.03522 19.9875C6.03074 19.4944 5.52432 19.0892 4.9908 18.8079C4.72404 18.6672 4.00442 18.5494 3.93334 18.556ZM10.4692 19.3978C10.4156 18.4349 10.7057 18.0853 10.8808 17.3576C11.0573 16.8835 11.1789 16.5302 10.4783 16.4988C9.37252 16.4389 9.38733 17.3696 9.17714 18.164C9.08779 18.4783 8.93037 19.3064 8.67611 19.4486C8.43724 19.5784 7.478 19.4635 7.17829 19.5023C6.88812 19.5845 6.62215 19.8381 6.55258 20.0982C6.45808 20.3276 6.51018 20.7695 6.78647 20.9533C7.16976 21.1907 8.18976 20.8615 8.45802 21.2557C8.31745 22.0574 8.23621 22.6964 8.09706 23.2167C8.0568 23.4659 7.7785 24.5065 7.71039 24.7527C7.65913 24.9726 7.22696 26.1378 7.28709 26.3693C7.36406 26.5745 7.79644 26.7466 8.10714 26.7371C8.81355 26.7128 9.05953 25.1761 9.20675 24.7129C9.27779 24.4389 9.5297 23.3814 9.58681 23.1059C9.66371 22.7761 9.92653 21.213 10.2145 21.018C10.4885 20.8216 11.62 21.0391 12.075 20.8616C12.3835 20.7392 12.593 20.353 12.549 19.9683C12.4786 19.2993 10.7697 19.7531 10.4692 19.3978ZM14.1197 21.2596C14.6305 21.3555 15.2811 20.7904 16.3429 20.7331C16.6588 20.8085 17.0561 21.5823 16.6582 22.0191C16.4062 22.2741 15.2176 22.0647 14.5134 22.2019C14.1103 22.2862 13.5923 22.5274 13.3769 22.7018C13.0384 22.9759 12.6251 23.4252 12.7007 24.1792C12.7088 24.5039 12.9566 24.8255 13.1838 25.0746C13.7276 25.7934 14.3278 26.1099 15.1157 26.5165C15.3421 26.6388 15.9027 26.7963 16.1438 26.7794C16.4824 26.7727 16.897 26.3095 17.0238 26.0413C17.3256 25.3129 17.5453 24.5617 17.7833 23.7703C17.9693 23.0719 18.2836 22.0914 18.2241 21.1842C18.1888 20.4484 17.7856 19.7304 17.3034 19.4967C16.4467 19.2096 15.7338 19.4302 14.8098 19.7836C14.3437 19.9317 13.7868 20.1406 13.7979 20.7049C13.8133 20.9599 13.8654 21.1343 14.1197 21.2596ZM15.431 23.3822C15.697 23.3961 16.2334 23.3821 16.3983 23.5543C16.3471 24.0416 16.2029 25.0119 15.7596 25.0779C15.1015 24.9102 14.1019 24.5095 14.1728 23.7005C14.411 23.444 14.899 23.3545 15.431 23.3822ZM21.0623 20.3704C20.9517 20.218 20.7377 20.111 20.5274 20.103C19.7726 20.0518 19.7477 20.556 19.5141 21.5731C19.2703 22.6878 19.031 24.563 18.8135 25.6945C18.741 25.9825 18.6516 26.2969 18.6898 26.4698C18.7418 26.6442 19.0167 26.842 19.224 26.8779C19.7502 26.9613 20.0177 26.9613 20.2067 26.5025C20.4352 25.9353 20.5866 24.3605 20.6972 23.7105C20.7221 23.4738 21.7362 22.9329 22.3246 22.8258C22.5701 22.7671 23.1849 22.6769 23.4846 22.638C23.7704 22.5976 24.3192 22.3316 24.2942 21.7658C24.2663 21.4954 23.9511 21.2793 23.6617 21.2207C23.1678 21.0984 22.5735 21.2612 22.1829 21.3609C21.8202 21.4636 21.3 21.8594 20.9636 21.7114C21.0398 21.2549 21.1657 20.8599 21.0623 20.3704ZM28.5124 21.2942C28.4588 20.3313 28.7489 19.9817 28.9239 19.254C29.1005 18.7799 29.2221 18.4267 28.5215 18.3953C27.4157 18.3353 27.4305 19.266 27.2203 20.0604C27.131 20.3748 26.9736 21.2028 26.7193 21.345C26.4804 21.4748 25.5212 21.3599 25.2215 21.3988C24.9313 21.4809 24.6653 21.7345 24.5958 21.9946C24.5013 22.224 24.5534 22.6659 24.8297 22.8498C25.213 23.0871 26.2329 22.7579 26.5012 23.1521C26.3606 23.9538 26.2794 24.5928 26.1403 25.1132C26.1 25.3623 25.8217 26.4029 25.7536 26.6491C25.7023 26.869 25.2702 28.0342 25.3303 28.2658C25.4073 28.4709 25.8396 28.6431 26.1503 28.6335C26.8567 28.6092 27.1027 27.0725 27.2499 26.6093C27.321 26.3353 27.5729 25.2778 27.63 25.0023C27.7069 24.6725 27.9697 23.1094 28.2577 22.9144C28.5317 22.718 29.6632 22.9355 30.1182 22.7581C30.4267 22.6356 30.6362 22.2494 30.5922 21.8647C30.5217 21.1957 28.8129 21.6495 28.5124 21.2942ZM37.3137 25.7667C37.7548 25.5878 38.2707 25.7687 38.81 25.7269C39.3215 25.6821 39.5214 24.7177 38.9168 24.443C38.2426 24.161 37.981 24.3728 37.5545 24.145C37.3698 23.7595 37.7154 22.0785 37.8428 21.6695C38.0538 21.0019 38.3987 19.729 39.0531 19.7978C39.443 19.8388 39.4863 20.3642 39.5823 20.6558C39.6784 20.9475 39.7598 21.3783 40.0229 21.42C40.3329 21.5512 40.818 21.4895 40.9718 21.0975C41.111 20.8446 41.1197 20.2262 40.8983 19.6539C40.5999 18.8764 40.0275 18.2954 39.0448 18.4033C38.0343 18.5082 37.4431 19.1781 36.9215 20.1228C36.4534 20.9604 36.263 21.7006 36.0389 22.761C35.9664 23.049 35.987 23.6564 35.8441 23.8103C35.669 24.0031 35.831 23.9357 35.4396 23.9086C35.0762 23.8845 34.6504 24.0509 34.5596 24.3792C34.5018 24.528 34.4256 24.717 34.5986 24.9464C35.0347 25.4849 35.0221 25.202 35.6868 25.4408C35.7969 26.2689 35.3985 27.6488 35.5144 28.4211C35.5914 28.8938 36.6034 29.0424 36.8569 28.5059C37.1528 27.8332 37.0932 26.1236 37.3137 25.7667ZM42.7359 22.6484C42.6252 22.496 42.4112 22.389 42.2009 22.381C41.4462 22.3298 41.4213 22.834 41.1877 23.8511C40.9439 24.9657 40.7045 26.841 40.4871 27.9725C40.4146 28.2605 40.3252 28.5748 40.3634 28.7478C40.4154 28.9222 40.6902 29.12 40.8976 29.1559C41.4238 29.2393 41.6913 29.2393 41.8802 28.7805C42.1088 28.2133 42.2602 26.6385 42.3708 25.9885C42.3957 25.7518 43.4098 25.2108 43.9982 25.1038C44.2437 25.0451 44.8584 24.9549 45.1582 24.916C45.4439 24.8756 45.9928 24.6095 45.9678 24.0438C45.9399 23.7734 45.6247 23.5573 45.3353 23.4987C44.8413 23.3764 44.2471 23.5392 43.8565 23.6389C43.4938 23.7416 42.9736 24.1374 42.6372 23.9894C42.7133 23.5329 42.8393 23.1379 42.7359 22.6484ZM48.8283 23.2746C48.3754 23.2974 48.1366 23.4272 47.776 23.6427C47.2031 24.0047 47.1173 24.1506 46.7444 24.6182C46.0367 25.4588 45.7152 27.0439 46.3463 28.1378C46.7062 28.598 47.4669 29.1284 48.1697 29.2726C49.0088 29.4594 49.6741 29.29 50.2398 28.9975C51.229 28.4258 51.9821 27.421 51.9446 26.305C52.0762 24.5169 50.8852 23.1248 48.8283 23.2746ZM47.5164 26.7827C47.4694 25.8909 48.2738 24.6663 49.0403 24.6061C50.0339 24.5275 50.7596 25.6596 50.386 26.8028C50.1949 27.4162 49.5406 27.8823 49.0958 27.9623C48.1519 28.1024 47.5561 27.4767 47.5164 26.7827ZM54.423 26.5373C54.368 26.1233 55.0895 24.2142 54.564 23.7226C54.424 23.5812 54.1053 23.5336 53.9433 23.6011C53.2985 23.843 53.2517 24.556 53.1273 25.472C53.057 25.8729 52.9552 26.4393 52.8366 27.0322C52.7026 27.6375 52.6214 28.2765 52.5299 28.7455C52.4142 29.3105 52.2904 29.8184 52.5652 30.0162C52.7081 30.1297 53.183 30.1656 53.4189 30.0637C53.6842 29.9508 53.923 29.5536 54.1509 29.127C54.542 28.3517 54.9736 27.8621 55.4307 27.2626C55.6762 26.9365 55.893 26.4807 56.3041 26.4535C56.4903 27.0924 56.1241 27.8986 55.9447 28.668C55.8722 28.956 55.7674 29.2829 55.7762 29.4668C55.8225 30.2318 56.7033 30.1555 57.1635 29.7956C57.7606 29.3375 58.3042 28.4515 58.7475 27.8505C58.8991 27.6131 59.0925 27.38 59.3717 27.2686C59.4106 27.8358 59.2326 28.3238 59.1118 28.8038C59.0078 29.2575 58.8123 29.9126 58.8571 30.4241C58.9349 31.291 59.9593 31.1875 60.2575 30.6276C60.415 30.3344 60.5189 29.6134 60.606 29.1861C60.699 28.7032 60.7796 28.2049 60.8835 27.7513C61.0432 27.036 61.5537 25.2597 60.9674 24.9447C60.2602 24.5747 59.6653 25.4131 59.3304 25.7862C59.1231 26.0178 58.8249 26.3102 58.6161 26.5557C58.4073 26.8012 58.1626 26.9867 57.75 27.2952C57.8766 25.9571 57.891 24.2131 56.5083 24.6449C55.9697 24.8135 55.4495 25.4768 55.0978 25.8762C54.9073 26.0814 54.5864 26.4559 54.423 26.5373ZM68.2917 25.8834C68.151 25.8827 68.4528 24.8868 68.5839 24.3093C68.6681 23.9099 68.9985 23.3112 68.7808 22.8378C68.665 22.6004 68.3022 22.4356 67.9746 22.4716C67.3335 22.5449 67.2142 23.8134 67.0356 24.7097C66.8613 25.5641 66.6855 26.165 66.4812 27.1712C66.1605 28.6156 65.9415 29.226 65.6354 30.5312C65.4545 31.3146 65.3879 32.0818 65.9918 32.2298C66.8616 32.3916 66.9333 31.7093 67.0776 31.0066C67.3463 29.9227 67.3873 29.2654 67.714 28.3002C67.8758 27.9653 68.1059 27.6517 68.3799 27.4552C68.6261 27.2559 68.9558 27.0653 69.4153 27.1136C69.6301 27.3473 69.4075 28.9287 69.3863 29.2643C69.2158 30.7527 68.9464 31.9772 69.0732 32.2439C69.2 32.5106 69.7994 32.7003 70.1394 32.4123C70.5241 32.1008 70.5804 31.1636 70.6586 30.2849C70.7464 29.4495 70.9148 28.3833 70.9447 27.6966C70.99 26.7301 70.8155 25.7123 70.216 25.5226C69.4121 25.2691 69.0187 25.9317 68.2917 25.8834ZM73.5136 30.5428C73.8595 30.4665 74.4479 30.3594 74.8927 30.2795C75.5522 30.1658 75.8929 30.0045 76.5429 29.8476C76.932 29.7618 77.2463 29.3162 77.2579 28.9374C77.2843 28.6867 77.1479 28.1093 77.068 27.932C76.6171 26.4628 75.5178 25.939 74.1036 26.269C73.5291 26.3776 72.8454 26.8547 72.4454 27.4461C71.9355 28.0119 71.6901 28.873 71.8288 30.0982C72.0848 31.2794 72.4043 31.7213 73.4838 32.2993C74.1544 32.7498 75.5379 32.7122 76.3021 32.2717C76.5593 32.1017 76.6743 31.6774 76.4017 31.3249C75.9062 30.9491 75.4374 31.66 74.525 31.367C73.9255 31.1773 73.5767 31.0139 73.5136 30.5428ZM73.7902 27.9113C74.742 27.2934 75.5715 27.4369 75.8223 28.5331C75.7278 28.7625 75.2992 28.9567 74.9716 28.9927C74.4741 29.0389 73.5955 29.2281 73.3492 29.16C73.2642 28.8977 73.3974 28.1656 73.7902 27.9113ZM80.1276 26.5784C80.0169 26.426 79.8029 26.319 79.5926 26.311C78.8378 26.2598 78.813 26.764 78.5794 27.7812C78.3356 28.8958 78.0962 30.771 77.8788 31.9025C77.8063 32.1905 77.7169 32.5049 77.7551 32.6778C77.8071 32.8522 78.0819 33.05 78.2893 33.0859C78.8155 33.1693 79.0829 33.1693 79.2719 32.7105C79.5005 32.1433 79.6519 30.5685 79.7625 29.9185C79.7873 29.6818 80.8015 29.1409 81.3899 29.0338C81.6353 28.9751 82.2501 28.8849 82.5498 28.846C82.8356 28.8057 83.3845 28.5396 83.3594 27.9739C83.3316 27.7035 83.0164 27.4873 82.727 27.4288C82.233 27.3065 81.6388 27.4692 81.2482 27.569C80.8855 27.6716 80.3653 28.0674 80.0289 27.9194C80.105 27.4629 80.231 27.0679 80.1276 26.5784ZM85.1118 31.7618C85.4577 31.6855 86.0461 31.5784 86.4909 31.4985C87.1504 31.3848 87.4911 31.2235 88.1411 31.0666C88.5302 30.9808 88.8445 30.5352 88.8561 30.1564C88.8825 29.9058 88.7461 29.3283 88.6662 29.151C88.2153 27.6818 87.116 27.1581 85.7018 27.488C85.1273 27.5966 84.4437 28.0737 84.0437 28.6652C83.5337 29.231 83.2884 30.092 83.4271 31.3172C83.683 32.4985 84.0026 32.9403 85.0821 33.5183C85.7526 33.9689 87.1361 33.9313 87.9004 33.4907C88.1576 33.3207 88.2725 32.8964 87.9999 32.544C87.5045 32.1681 87.0356 32.879 86.1232 32.586C85.5238 32.3963 85.1749 32.233 85.1118 31.7618ZM85.3884 29.1303C86.3402 28.5124 87.1698 28.6559 87.4205 29.7521C87.326 29.9815 86.8974 30.1757 86.5698 30.2117C86.0723 30.2579 85.1937 30.4471 84.9475 30.379C84.8624 30.1167 84.9957 29.3846 85.3884 29.1303Z" fill="white"/>
</svg>
